<svg xmlns="http://www.w3.org/2000/svg" xmlns:xlink="http://www.w3.org/1999/xlink" width="450" zoomAndPan="magnify" viewBox="0 0 337.5 149.999998" height="200" preserveAspectRatio="xMidYMid meet" version="1.0"><defs><g/></defs><g fill="#000000" fill-opacity="1"><g transform="translate(6.332303, 103.117743)"><g><path d="M 5.191406 -0.394531 C 5.824219 -0.445312 6.246094 -0.996094 6.199219 -1.632812 L 5.171875 -18.144531 C 9.449219 -19.109375 13.074219 -20.253906 17.085938 -21.664062 L 17.808594 -12.203125 C 18.035156 -9.203125 18.28125 -5.976562 18.597656 -2.578125 C 18.648438 -1.941406 19.207031 -1.460938 19.839844 -1.511719 C 20.472656 -1.558594 20.953125 -2.117188 20.90625 -2.753906 C 20.589844 -6.152344 20.339844 -9.4375 20.097656 -12.609375 L 19.34375 -22.472656 C 20.867188 -23.050781 22.328125 -23.6875 24.082031 -24.285156 C 24.585938 -24.496094 24.84375 -24.921875 24.800781 -25.5 C 24.792969 -25.613281 24.78125 -25.730469 24.71875 -25.78125 C 24.5625 -26.351562 24.191406 -26.613281 23.558594 -26.5625 C 23.386719 -26.550781 23.269531 -26.542969 23.21875 -26.480469 L 19.160156 -24.894531 C 18.917969 -27.3125 18.734375 -29.734375 18.546875 -32.214844 L 17.957031 -39.941406 C 17.910156 -40.578125 17.351562 -41.058594 16.714844 -41.007812 C 16.082031 -40.960938 15.601562 -40.402344 15.648438 -39.765625 L 16.265625 -31.691406 C 16.460938 -29.097656 16.65625 -26.558594 16.90625 -24.027344 C 12.84375 -22.558594 9.269531 -21.472656 4.992188 -20.507812 C 4.449219 -29.921875 3.875 -39.742188 3.980469 -40.675781 C 4.105469 -41.324219 3.65625 -41.871094 3.007812 -41.996094 C 2.359375 -42.121094 1.816406 -41.671875 1.691406 -41.023438 C 1.5625 -39.679688 2.554688 -22.0625 2.707031 -20.046875 C 1.742188 -19.796875 0.644531 -19.714844 -0.4375 -19.457031 C -1.066406 -19.351562 -1.441406 -18.917969 -1.390625 -18.28125 L -1.382812 -18.167969 C -1.277344 -17.539062 -0.78125 -17.109375 -0.148438 -17.160156 L -0.03125 -17.167969 C 0.9375 -17.414062 1.921875 -17.433594 2.886719 -17.679688 L 3.894531 -1.398438 C 3.945312 -0.765625 4.5 -0.34375 5.132812 -0.390625 Z M 5.191406 -0.394531 "/></g></g></g><g fill="#000000" fill-opacity="1"><g transform="translate(32.91762, 101.093045)"><g><path d="M 3.324219 -7.386719 C 6.378906 -7.621094 8.269531 -11.765625 9.269531 -14.628906 C 9.78125 -11.707031 11.195312 -9.902344 13.214844 -10.054688 C 15.289062 -10.214844 17.902344 -12.5 20.441406 -17.972656 C 20.492188 -18.09375 20.535156 -18.269531 20.515625 -18.558594 C 20.480469 -19.019531 20.277344 -19.351562 19.859375 -19.554688 C 19.738281 -19.601562 19.5625 -19.644531 19.273438 -19.625 C 18.753906 -19.585938 18.476562 -19.390625 18.335938 -18.972656 C 15.847656 -13.5625 13.699219 -12.066406 12.742188 -12.457031 C 11.84375 -12.792969 11.523438 -14.742188 11.359375 -16.875 C 11.1875 -19.125 11.246094 -21.449219 11.234375 -22.320312 C 11.1875 -22.953125 10.625 -23.492188 9.992188 -23.441406 C 9.414062 -23.398438 9.03125 -23.078125 8.902344 -22.488281 C 7.757812 -15.441406 5.054688 -9.78125 3.269531 -9.644531 C 2.402344 -9.582031 1.847656 -10.757812 1.613281 -13.117188 C 1.40625 -15.828125 1.628906 -18.976562 1.90625 -20.679688 C 1.964844 -21.4375 1.640625 -21.878906 0.878906 -21.992188 C 0.117188 -22.050781 -0.320312 -21.730469 -0.4375 -20.964844 C -0.683594 -18.859375 -0.925781 -15.941406 -0.726562 -13.34375 C -0.46875 -9.941406 0.554688 -7.175781 3.324219 -7.386719 Z M 3.324219 -7.386719 "/></g></g></g><g fill="#000000" fill-opacity="1"><g transform="translate(52.121332, 99.630519)"><g><path d="M 1.207031 -7.75 C 1.84375 -7.796875 2.167969 -8.113281 2.238281 -8.699219 C 3.339844 -14.8125 6.203125 -21.355469 6.976562 -21.878906 C 7.449219 -20.988281 7.585938 -17.691406 8.3125 -11.191406 C 8.417969 -10.5625 8.859375 -10.128906 9.492188 -10.179688 C 10.132812 -10.167969 10.507812 -10.546875 10.632812 -11.191406 C 10.792969 -12.886719 11.863281 -17.898438 12.945312 -19.664062 C 13.53125 -18.085938 14.253906 -13.152344 18.109375 -12.808594 C 18.28125 -12.820312 18.460938 -12.777344 18.691406 -12.792969 C 21.457031 -13.003906 23.871094 -16.378906 25.605469 -18.714844 C 25.765625 -18.902344 25.804688 -19.136719 25.785156 -19.425781 C 25.753906 -19.828125 25.558594 -20.101562 25.253906 -20.3125 C 25.066406 -20.472656 24.828125 -20.570312 24.539062 -20.546875 C 24.136719 -20.515625 23.859375 -20.320312 23.652344 -20.015625 C 20.738281 -15.617188 19.046875 -14.964844 18.285156 -15.082031 C 15.480469 -15.332031 15.929688 -20.878906 13.929688 -22 C 13.621094 -22.210938 13.269531 -22.300781 12.863281 -22.269531 C 12.691406 -22.253906 12.519531 -22.242188 12.464844 -22.179688 C 11.5 -21.875 10.613281 -20.589844 9.910156 -18.390625 C 9.472656 -21.835938 9.382812 -23.800781 7.503906 -24.121094 C 7.265625 -24.164062 7.03125 -24.203125 6.800781 -24.183594 C 6.050781 -24.128906 5.097656 -23.707031 4.351562 -22.085938 C 3.34375 -20.09375 2.457031 -17.996094 1.746094 -15.910156 L 1.222656 -22.773438 C 1.175781 -23.410156 0.617188 -23.886719 -0.015625 -23.839844 C -0.652344 -23.792969 -1.132812 -23.234375 -1.082031 -22.597656 L -0.0351562 -8.816406 C 0.015625 -8.179688 0.574219 -7.699219 1.207031 -7.75 Z M 1.207031 -7.75 "/></g></g></g><g fill="#000000" fill-opacity="1"><g transform="translate(76.399889, 97.7815)"><g><path d="M 0.992188 -3.730469 C 1.625 -3.777344 2.042969 -4.390625 1.996094 -5.023438 C 1.921875 -6.003906 1.785156 -7.039062 1.710938 -8.019531 C 1.601562 -9.460938 1.550781 -10.851562 1.5 -12.296875 C 1.5625 -17.578125 7.03125 -21.941406 9.511719 -22.128906 C 9.914062 -22.160156 10.269531 -22.070312 10.460938 -21.855469 C 10.710938 -21.582031 10.859375 -21.1875 10.894531 -20.726562 C 10.96875 -19.746094 10.660156 -18.445312 10.484375 -17.738281 C 3.816406 -14.617188 1.707031 -11.09375 1.867188 -9.015625 C 1.964844 -7.691406 2.957031 -6.894531 4.339844 -7 C 6.414062 -7.160156 9.714844 -9.558594 11.4375 -13.574219 C 11.832031 -14.476562 12.058594 -15.304688 12.40625 -16.085938 C 14.820312 -17.140625 17.039062 -17.714844 19.171875 -17.875 C 19.808594 -17.925781 20.289062 -18.484375 20.238281 -19.117188 C 20.191406 -19.753906 19.632812 -20.230469 18.996094 -20.183594 C 17.09375 -20.039062 15.097656 -19.597656 13.066406 -18.863281 C 13.179688 -19.625 13.25 -20.269531 13.199219 -20.902344 C 13.011719 -23.382812 11.414062 -24.535156 9.398438 -24.382812 C 7.722656 -24.253906 5.710938 -23.289062 3.757812 -21.515625 C 5.222656 -24.355469 6.386719 -27.34375 7.246094 -30.542969 C 8.289062 -34.335938 8.558594 -36.90625 8.417969 -38.753906 C 8.21875 -41.347656 7.109375 -42.25 6.011719 -42.164062 C 5.261719 -42.109375 4.59375 -41.769531 4.121094 -41.09375 C 2.585938 -39.179688 1.039062 -34.363281 0.09375 -28.488281 C -0.886719 -22.324219 -1.171875 -15.398438 -0.613281 -8.074219 L -0.488281 -6.402344 C -0.449219 -5.882812 -0.402344 -5.304688 -0.300781 -4.734375 C -0.253906 -4.097656 0.300781 -3.675781 0.933594 -3.726562 Z M 1.699219 -22.636719 C 2.3125 -30.574219 4.371094 -37.804688 5.96875 -39.667969 C 6.050781 -39.382812 6.132812 -39.042969 6.167969 -38.582031 C 6.402344 -35.523438 4.839844 -28.617188 1.699219 -22.636719 Z M 4.167969 -9.25 C 3.796875 -9.570312 5.070312 -11.871094 9.335938 -14.515625 C 7.855469 -11.097656 5.191406 -9.503906 4.167969 -9.25 Z M 4.167969 -9.25 "/></g></g></g><g fill="#000000" fill-opacity="1"><g transform="translate(95.545923, 96.323367)"><g><path d="M 5.472656 -8.132812 C 9.21875 -8.417969 13.671875 -10.902344 17.457031 -18.324219 C 17.558594 -18.507812 17.605469 -18.683594 17.585938 -18.914062 C 17.546875 -19.433594 17.351562 -19.710938 16.933594 -19.851562 C 16.753906 -19.953125 16.519531 -19.996094 16.34375 -19.980469 C 15.941406 -19.949219 15.609375 -19.75 15.402344 -19.386719 C 13.644531 -15.832031 11.625 -13.414062 9.417969 -11.914062 C 8.144531 -11.121094 6.621094 -10.539062 5.066406 -10.421875 C 2.929688 -10.257812 1.015625 -11.039062 0.828125 -13.519531 C 0.804688 -13.808594 0.839844 -14.101562 0.867188 -14.511719 C 4.710938 -15.09375 9.050781 -18.265625 8.816406 -21.324219 C 8.691406 -22.996094 7.320312 -24.226562 5.476562 -24.085938 C 4.320312 -23.996094 2.976562 -23.371094 1.640625 -21.878906 C -0.445312 -19.574219 -1.636719 -16.175781 -1.421875 -13.351562 C -1.191406 -10.292969 0.800781 -7.777344 5.472656 -8.132812 Z M 1.484375 -17.050781 C 2.796875 -20.398438 4.613281 -21.699219 5.707031 -21.78125 C 6.113281 -21.8125 6.351562 -21.714844 6.429688 -21.429688 C 6.820312 -20.125 4.277344 -17.726562 1.484375 -17.050781 Z M 1.484375 -17.050781 "/></g></g></g><g fill="#000000" fill-opacity="1"><g transform="translate(111.577838, 95.1024)"><g><path d="M 0.535156 -8.21875 C 1.167969 -8.269531 1.652344 -8.769531 1.605469 -9.402344 C 1.421875 -15.597656 6.902344 -22.859375 9.945312 -22.511719 C 10.59375 -22.386719 11.082031 -22.828125 11.207031 -23.476562 C 11.332031 -24.125 10.882812 -24.671875 10.234375 -24.796875 C 9.828125 -24.820312 9.535156 -24.859375 9.304688 -24.839844 C 6.074219 -24.59375 2.957031 -20.585938 1.496094 -17.691406 C 1.539062 -19.375 1.464844 -21.109375 1.332031 -22.898438 C 1.28125 -23.53125 0.722656 -24.011719 0.0898438 -23.964844 C -0.546875 -23.914062 -1.023438 -23.355469 -0.976562 -22.722656 C -0.699219 -18.335938 -0.996094 -13.847656 -0.707031 -9.285156 C -0.660156 -8.652344 -0.105469 -8.230469 0.535156 -8.21875 Z M 0.535156 -8.21875 "/></g></g></g><g fill="#000000" fill-opacity="1"><g transform="translate(124.899326, 94.087856)"><g><path d="M 1.746094 -7.558594 C 2.378906 -7.605469 2.796875 -8.21875 2.75 -8.851562 C 2.332031 -12.011719 2.046875 -15.007812 1.824219 -17.949219 C 1.292969 -24.925781 1.199219 -31.472656 1.578125 -37.941406 L 14.988281 -39.3125 C 15.625 -39.359375 16.101562 -39.917969 16.054688 -40.550781 C 16.007812 -41.1875 15.449219 -41.667969 14.753906 -41.613281 L 1.691406 -40.269531 C 1.898438 -42.839844 2.171875 -45.355469 2.445312 -47.871094 C 2.566406 -48.574219 1.992188 -49.226562 1.242188 -49.167969 C 0.667969 -49.125 0.285156 -48.808594 0.160156 -48.160156 C -0.160156 -45.523438 -0.421875 -42.835938 -0.617188 -40.09375 L -11.144531 -38.945312 C -11.78125 -38.898438 -12.210938 -38.457031 -12.160156 -37.824219 L -12.152344 -37.707031 C -12.105469 -37.074219 -11.546875 -36.59375 -10.910156 -36.640625 L -0.78125 -37.703125 C -1.109375 -31.296875 -1.007812 -24.636719 -0.484375 -17.773438 C -0.253906 -14.773438 0.03125 -11.777344 0.449219 -8.5625 C 0.5 -7.925781 1.050781 -7.503906 1.6875 -7.554688 Z M 1.746094 -7.558594 "/></g></g></g><g fill="#000000" fill-opacity="1"><g transform="translate(135.741059, 93.262165)"><g><path d="M 8.347656 -11.484375 C 9.09375 -13.105469 9.476562 -14.933594 9.34375 -16.722656 C 9.984375 -16.65625 10.625 -16.644531 11.375 -16.703125 C 12.699219 -16.804688 14.125 -17.144531 15.652344 -17.667969 C 16.214844 -17.882812 16.472656 -18.308594 16.425781 -18.945312 L 16.40625 -19.175781 C 16.199219 -19.621094 15.707031 -19.992188 15.1875 -19.953125 C 15.015625 -19.9375 15.074219 -19.886719 14.902344 -19.871094 C 13.605469 -19.367188 12.410156 -19.101562 11.253906 -19.015625 C 10.332031 -18.945312 9.511719 -19.054688 8.808594 -19.175781 C 8.1875 -21.214844 6.046875 -24.1875 3.878906 -23.730469 C 3.695312 -23.832031 3.460938 -23.871094 3.230469 -23.855469 C 2.941406 -23.832031 2.65625 -23.753906 2.496094 -23.566406 C 0.933594 -22 -0.191406 -20.054688 -0.65625 -17.757812 C -0.964844 -16.460938 -1.042969 -15.234375 -0.957031 -14.082031 C -0.65625 -10.160156 1.722656 -7.847656 4.203125 -8.035156 C 5.761719 -8.152344 7.183594 -9.25 8.347656 -11.484375 Z M 6.238281 -12.539062 C 5.476562 -11.089844 4.722656 -10.335938 3.972656 -10.28125 C 2.648438 -10.179688 1.578125 -12.011719 1.390625 -14.492188 C 1.25 -16.335938 1.660156 -18.574219 2.960938 -20.527344 C 3.582031 -19.242188 4.953125 -18.011719 6.921875 -17.292969 C 6.9375 -17.0625 7.011719 -16.835938 7.035156 -16.546875 C 7.144531 -15.105469 6.789062 -13.683594 6.238281 -12.539062 Z M 6.238281 -12.539062 "/></g></g></g><g fill="#000000" fill-opacity="1"><g transform="translate(150.907958, 92.107077)"><g/></g></g><g fill="#000000" fill-opacity="1"><g transform="translate(162.441713, 91.228683)"><g><path d="M 11.933594 -0.96875 C 18.402344 -2.097656 25.058594 -8.40625 28.429688 -16.667969 C 28.472656 -16.902344 28.515625 -17.078125 28.507812 -17.195312 C 28.457031 -17.828125 27.957031 -18.3125 27.265625 -18.261719 C 26.804688 -18.226562 26.476562 -17.96875 26.277344 -17.546875 C 23.542969 -10.785156 17.300781 -3.636719 10.378906 -3.109375 C 4.496094 -2.664062 1.742188 -7.617188 1.25 -14.074219 C 0.863281 -19.152344 1.867188 -24.96875 3.75 -29.984375 C 6.535156 -37.566406 10.230469 -40.109375 13.113281 -40.328125 C 16.226562 -40.566406 18.558594 -38.132812 18.511719 -36.445312 C 18.507812 -35.75 19.070312 -35.214844 19.761719 -35.265625 C 20.398438 -35.3125 20.828125 -35.753906 20.835938 -36.390625 C 20.898438 -39.414062 17.378906 -42.972656 12.9375 -42.636719 C 9.1875 -42.351562 4.839844 -39.292969 1.597656 -30.808594 C -0.480469 -25.371094 -1.46875 -19.261719 -1.0625 -13.957031 C -0.480469 -6.285156 3.058594 -0.234375 10.4375 -0.796875 L 11.1875 -0.851562 C 11.417969 -0.871094 11.648438 -0.886719 11.933594 -0.96875 Z M 11.933594 -0.96875 "/></g></g></g><g fill="#000000" fill-opacity="1"><g transform="translate(189.315361, 89.182026)"><g><path d="M 8.347656 -11.484375 C 9.09375 -13.105469 9.476562 -14.933594 9.34375 -16.722656 C 9.984375 -16.65625 10.625 -16.644531 11.375 -16.703125 C 12.699219 -16.804688 14.125 -17.144531 15.652344 -17.667969 C 16.214844 -17.882812 16.472656 -18.308594 16.425781 -18.945312 L 16.40625 -19.175781 C 16.199219 -19.621094 15.707031 -19.992188 15.1875 -19.953125 C 15.015625 -19.9375 15.074219 -19.886719 14.902344 -19.871094 C 13.605469 -19.367188 12.410156 -19.101562 11.253906 -19.015625 C 10.332031 -18.945312 9.511719 -19.054688 8.808594 -19.175781 C 8.1875 -21.214844 6.046875 -24.1875 3.878906 -23.730469 C 3.695312 -23.832031 3.460938 -23.871094 3.230469 -23.855469 C 2.941406 -23.832031 2.65625 -23.753906 2.496094 -23.566406 C 0.933594 -22 -0.191406 -20.054688 -0.65625 -17.757812 C -0.964844 -16.460938 -1.042969 -15.234375 -0.957031 -14.082031 C -0.65625 -10.160156 1.722656 -7.847656 4.203125 -8.035156 C 5.761719 -8.152344 7.183594 -9.25 8.347656 -11.484375 Z M 6.238281 -12.539062 C 5.476562 -11.089844 4.722656 -10.335938 3.972656 -10.28125 C 2.648438 -10.179688 1.578125 -12.011719 1.390625 -14.492188 C 1.25 -16.335938 1.660156 -18.574219 2.960938 -20.527344 C 3.582031 -19.242188 4.953125 -18.011719 6.921875 -17.292969 C 6.9375 -17.0625 7.011719 -16.835938 7.035156 -16.546875 C 7.144531 -15.105469 6.789062 -13.683594 6.238281 -12.539062 Z M 6.238281 -12.539062 "/></g></g></g><g fill="#000000" fill-opacity="1"><g transform="translate(204.48226, 88.026938)"><g><path d="M 4.664062 -8.070312 C 8.238281 -8.34375 11.691406 -14.8125 13.132812 -17.996094 C 13.179688 -18.117188 13.226562 -18.292969 13.203125 -18.582031 C 13.167969 -19.042969 12.96875 -19.375 12.546875 -19.578125 C 12.3125 -19.617188 12.132812 -19.660156 12.019531 -19.652344 C 11.558594 -19.617188 11.230469 -19.359375 11.03125 -18.9375 C 9.183594 -14.96875 6.277344 -10.511719 4.546875 -10.382812 C 4.375 -10.367188 4.253906 -10.417969 4.074219 -10.460938 C 3.292969 -10.867188 2.027344 -11.464844 1.625 -16.773438 C 1.257812 -21.558594 1.664062 -29.1875 3.070312 -40.433594 C 3.128906 -41.191406 2.804688 -41.632812 2.042969 -41.746094 C 1.394531 -41.871094 0.910156 -41.371094 0.785156 -40.722656 C -0.0664062 -33.640625 -1.25 -24.035156 -0.722656 -17.117188 C -0.304688 -11.636719 1.144531 -7.800781 4.664062 -8.070312 Z M 4.664062 -8.070312 "/></g></g></g><g fill="#000000" fill-opacity="1"><g transform="translate(216.246689, 87.130977)"><g><path d="M 1.207031 -7.75 C 1.84375 -7.796875 2.167969 -8.113281 2.238281 -8.699219 C 3.339844 -14.8125 6.203125 -21.355469 6.976562 -21.878906 C 7.449219 -20.988281 7.585938 -17.691406 8.3125 -11.191406 C 8.417969 -10.5625 8.859375 -10.128906 9.492188 -10.179688 C 10.132812 -10.167969 10.507812 -10.546875 10.632812 -11.191406 C 10.792969 -12.886719 11.863281 -17.898438 12.945312 -19.664062 C 13.53125 -18.085938 14.253906 -13.152344 18.109375 -12.808594 C 18.28125 -12.820312 18.460938 -12.777344 18.691406 -12.792969 C 21.457031 -13.003906 23.871094 -16.378906 25.605469 -18.714844 C 25.765625 -18.902344 25.804688 -19.136719 25.785156 -19.425781 C 25.753906 -19.828125 25.558594 -20.101562 25.253906 -20.3125 C 25.066406 -20.472656 24.828125 -20.570312 24.539062 -20.546875 C 24.136719 -20.515625 23.859375 -20.320312 23.652344 -20.015625 C 20.738281 -15.617188 19.046875 -14.964844 18.285156 -15.082031 C 15.480469 -15.332031 15.929688 -20.878906 13.929688 -22 C 13.621094 -22.210938 13.269531 -22.300781 12.863281 -22.269531 C 12.691406 -22.253906 12.519531 -22.242188 12.464844 -22.179688 C 11.5 -21.875 10.613281 -20.589844 9.910156 -18.390625 C 9.472656 -21.835938 9.382812 -23.800781 7.503906 -24.121094 C 7.265625 -24.164062 7.03125 -24.203125 6.800781 -24.183594 C 6.050781 -24.128906 5.097656 -23.707031 4.351562 -22.085938 C 3.34375 -20.09375 2.457031 -17.996094 1.746094 -15.910156 L 1.222656 -22.773438 C 1.175781 -23.410156 0.617188 -23.886719 -0.015625 -23.839844 C -0.652344 -23.792969 -1.132812 -23.234375 -1.082031 -22.597656 L -0.0351562 -8.816406 C 0.015625 -8.179688 0.574219 -7.699219 1.207031 -7.75 Z M 1.207031 -7.75 "/></g></g></g><g fill="#000000" fill-opacity="1"><g transform="translate(240.525247, 85.281958)"><g><path d="M 5.472656 -8.132812 C 9.21875 -8.417969 13.671875 -10.902344 17.457031 -18.324219 C 17.558594 -18.507812 17.605469 -18.683594 17.585938 -18.914062 C 17.546875 -19.433594 17.351562 -19.710938 16.933594 -19.851562 C 16.753906 -19.953125 16.519531 -19.996094 16.34375 -19.980469 C 15.941406 -19.949219 15.609375 -19.75 15.402344 -19.386719 C 13.644531 -15.832031 11.625 -13.414062 9.417969 -11.914062 C 8.144531 -11.121094 6.621094 -10.539062 5.066406 -10.421875 C 2.929688 -10.257812 1.015625 -11.039062 0.828125 -13.519531 C 0.804688 -13.808594 0.839844 -14.101562 0.867188 -14.511719 C 4.710938 -15.09375 9.050781 -18.265625 8.816406 -21.324219 C 8.691406 -22.996094 7.320312 -24.226562 5.476562 -24.085938 C 4.320312 -23.996094 2.976562 -23.371094 1.640625 -21.878906 C -0.445312 -19.574219 -1.636719 -16.175781 -1.421875 -13.351562 C -1.191406 -10.292969 0.800781 -7.777344 5.472656 -8.132812 Z M 1.484375 -17.050781 C 2.796875 -20.398438 4.613281 -21.699219 5.707031 -21.78125 C 6.113281 -21.8125 6.351562 -21.714844 6.429688 -21.429688 C 6.820312 -20.125 4.277344 -17.726562 1.484375 -17.050781 Z M 1.484375 -17.050781 "/></g></g></g><g fill="#000000" fill-opacity="1"><g transform="translate(256.557162, 84.060991)"><g><path d="M 0.566406 -7.816406 C 1.082031 -7.855469 1.414062 -8.113281 1.546875 -8.644531 C 3.222656 -14.804688 5.28125 -21.285156 6.609375 -21.386719 C 6.839844 -21.402344 7.023438 -21.242188 7.230469 -20.855469 C 7.441406 -20.347656 7.609375 -19.664062 7.675781 -18.800781 C 7.839844 -16.664062 7.640625 -13.925781 10.238281 -12.554688 C 10.90625 -12.199219 11.613281 -12.023438 12.480469 -12.089844 C 15.535156 -12.320312 18.25 -15.542969 19.765625 -18.5 C 19.867188 -18.683594 19.910156 -18.859375 19.894531 -19.089844 C 19.859375 -19.554688 19.660156 -19.886719 19.242188 -20.027344 C 19.058594 -20.128906 18.824219 -20.171875 18.59375 -20.152344 C 18.191406 -20.121094 17.859375 -19.921875 17.714844 -19.503906 C 16.765625 -17.519531 14.4375 -14.558594 12.417969 -14.402344 C 12.015625 -14.371094 11.660156 -14.460938 11.359375 -14.613281 C 9.964844 -15.378906 10.125 -17.128906 9.976562 -19.03125 C 9.902344 -20.011719 9.765625 -21.046875 9.292969 -21.9375 C 8.671875 -23.226562 7.523438 -23.835938 6.3125 -23.742188 C 3.890625 -23.558594 2.796875 -20.398438 1.574219 -16.652344 C 1.632812 -18.917969 1.660156 -20.835938 1.769531 -22.46875 C 1.894531 -23.117188 1.328125 -23.710938 0.6875 -23.71875 C 0.0390625 -23.84375 -0.496094 -23.28125 -0.507812 -22.644531 C -0.800781 -18.152344 -0.789062 -12.644531 -0.679688 -8.941406 C -0.691406 -8.300781 -0.128906 -7.761719 0.566406 -7.816406 Z M 0.566406 -7.816406 "/></g></g></g><g fill="#000000" fill-opacity="1"><g transform="translate(274.953495, 82.659954)"><g><path d="M -0.796875 -8.175781 C -0.25 -7.871094 0.339844 -7.742188 0.972656 -7.789062 C 3.105469 -7.953125 5.398438 -10.621094 6.5625 -12.855469 C 6.59375 -10.132812 8.007812 -8.324219 10.027344 -8.480469 C 12.335938 -8.65625 15.492188 -11.390625 18.667969 -18.417969 C 18.707031 -18.652344 18.753906 -18.832031 18.742188 -18.945312 C 18.707031 -19.40625 18.453125 -19.734375 18.03125 -19.9375 C 17.910156 -19.984375 17.734375 -20.027344 17.503906 -20.011719 C 17.042969 -19.976562 16.707031 -19.777344 16.507812 -19.355469 C 14.945312 -15.523438 11.867188 -10.996094 10.195312 -10.871094 C 9.558594 -10.820312 9.171875 -11.3125 9.054688 -12.871094 C 9 -13.621094 8.984375 -14.546875 9.128906 -15.71875 C 9.210938 -16.945312 9.347656 -18.171875 9.667969 -19.300781 C 9.890625 -20.1875 9.3125 -20.894531 8.449219 -20.832031 C 8.046875 -20.800781 7.71875 -20.542969 7.464844 -20.058594 C 6.28125 -17.300781 4.367188 -12.746094 2.132812 -10.835938 C 1.644531 -10.394531 1.253906 -10.1875 0.851562 -10.160156 C 0.214844 -10.109375 -0.105469 -10.550781 -0.183594 -11.53125 C -0.410156 -14.527344 2.484375 -21.476562 8.652344 -21.949219 C 9.289062 -21.996094 9.769531 -22.554688 9.71875 -23.191406 C 9.671875 -23.824219 9.113281 -24.304688 8.476562 -24.253906 C 1.269531 -23.707031 -2.785156 -16.03125 -2.429688 -11.359375 C -2.320312 -9.917969 -1.769531 -8.742188 -0.796875 -8.175781 Z M -0.796875 -8.175781 "/></g></g></g><g fill="#000000" fill-opacity="1"><g transform="translate(292.196459, 81.346755)"><g><path d="M 0.535156 -8.21875 C 1.167969 -8.269531 1.652344 -8.769531 1.605469 -9.402344 C 1.421875 -15.597656 6.902344 -22.859375 9.945312 -22.511719 C 10.59375 -22.386719 11.082031 -22.828125 11.207031 -23.476562 C 11.332031 -24.125 10.882812 -24.671875 10.234375 -24.796875 C 9.828125 -24.820312 9.535156 -24.859375 9.304688 -24.839844 C 6.074219 -24.59375 2.957031 -20.585938 1.496094 -17.691406 C 1.539062 -19.375 1.464844 -21.109375 1.332031 -22.898438 C 1.28125 -23.53125 0.722656 -24.011719 0.0898438 -23.964844 C -0.546875 -23.914062 -1.023438 -23.355469 -0.976562 -22.722656 C -0.699219 -18.335938 -0.996094 -13.847656 -0.707031 -9.285156 C -0.660156 -8.652344 -0.105469 -8.230469 0.535156 -8.21875 Z M 0.535156 -8.21875 "/></g></g></g><g fill="#000000" fill-opacity="1"><g transform="translate(305.517946, 80.332211)"><g><path d="M 5.472656 -8.132812 C 9.21875 -8.417969 13.671875 -10.902344 17.457031 -18.324219 C 17.558594 -18.507812 17.605469 -18.683594 17.585938 -18.914062 C 17.546875 -19.433594 17.351562 -19.710938 16.933594 -19.851562 C 16.753906 -19.953125 16.519531 -19.996094 16.34375 -19.980469 C 15.941406 -19.949219 15.609375 -19.75 15.402344 -19.386719 C 13.644531 -15.832031 11.625 -13.414062 9.417969 -11.914062 C 8.144531 -11.121094 6.621094 -10.539062 5.066406 -10.421875 C 2.929688 -10.257812 1.015625 -11.039062 0.828125 -13.519531 C 0.804688 -13.808594 0.839844 -14.101562 0.867188 -14.511719 C 4.710938 -15.09375 9.050781 -18.265625 8.816406 -21.324219 C 8.691406 -22.996094 7.320312 -24.226562 5.476562 -24.085938 C 4.320312 -23.996094 2.976562 -23.371094 1.640625 -21.878906 C -0.445312 -19.574219 -1.636719 -16.175781 -1.421875 -13.351562 C -1.191406 -10.292969 0.800781 -7.777344 5.472656 -8.132812 Z M 1.484375 -17.050781 C 2.796875 -20.398438 4.613281 -21.699219 5.707031 -21.78125 C 6.113281 -21.8125 6.351562 -21.714844 6.429688 -21.429688 C 6.820312 -20.125 4.277344 -17.726562 1.484375 -17.050781 Z M 1.484375 -17.050781 "/></g></g></g><g fill="#000000" fill-opacity="1"><g transform="translate(321.549862, 79.111244)"><g><path d="M -2.210938 -8.476562 C -2.304688 -8.175781 -2.339844 -7.886719 -2.320312 -7.597656 C -2.210938 -6.15625 -0.875 -5.386719 0.566406 -5.496094 C 2.472656 -5.640625 4.550781 -7.25 4.257812 -11.113281 L 4.222656 -11.574219 C 4.210938 -11.75 4.195312 -11.921875 4.125 -12.089844 C 6.683594 -14.316406 9.265625 -16.195312 12.414062 -17.535156 C 12.917969 -17.75 13.175781 -18.175781 13.136719 -18.691406 C 13.125 -18.867188 13.109375 -19.039062 13.046875 -19.09375 C 12.839844 -19.539062 12.414062 -19.796875 11.953125 -19.761719 C 11.78125 -19.75 11.605469 -19.738281 11.554688 -19.675781 C 8.464844 -18.335938 5.929688 -16.578125 3.476562 -14.535156 C 2.875 -16.34375 1.265625 -19.179688 1.113281 -21.199219 C 1.058594 -21.890625 1.191406 -22.425781 1.460938 -22.734375 C 1.617188 -22.921875 1.933594 -23.351562 2.570312 -23.398438 C 2.972656 -23.429688 3.441406 -23.347656 3.984375 -23.101562 C 4.21875 -23.0625 4.394531 -23.015625 4.511719 -23.023438 C 4.914062 -23.054688 5.246094 -23.253906 5.503906 -23.679688 C 5.609375 -23.863281 5.652344 -24.039062 5.632812 -24.269531 C 5.597656 -24.730469 5.34375 -25.058594 4.925781 -25.203125 C 4.082031 -25.601562 3.257812 -25.773438 2.394531 -25.707031 C 0.257812 -25.542969 -1.40625 -23.792969 -1.183594 -20.851562 C -1.152344 -20.449219 -1.066406 -20.105469 -0.972656 -19.648438 C -0.316406 -17.089844 0.914062 -15.441406 1.628906 -12.886719 C -1.140625 -10.414062 -1.890625 -9.601562 -2.210938 -8.476562 Z M -0.015625 -7.828125 C 0.125 -8.246094 0.714844 -8.871094 1.960938 -10.070312 C 1.832031 -7.914062 0.410156 -7.574219 -0.015625 -7.828125 Z M -0.015625 -7.828125 "/></g></g></g></svg>